PathFileType	4	(X/Y/Z)	C:/Users/opensim2020/Desktop/walking_exp_matlab/subject03_walking14_straight_02.trc	
DataRate	CameraRate	NumFrames	NumMarkers	Units	OrigDataRate	OrigDataStartFrame	OrigNumFrames	
100.00	100.00	4	47	mm	100.00	1170	168	
Frame#	Time	LFHD			RFHD			LBHD			RBHD			C7			T10			CLAV			STRN			RBAK			LSHO			LUPA			LELB			LFRM			LWRA			LWRB			LFIN			RSHO			RUPA			RELB			RFRM			RWRA			RWRB			RFIN			LASI			RASI			LPSI			RPSI			LTHI			LKNE			LTIB			LANK			LHEE			LTOE			RTHI			RKNE			RTIB			RANK			RHEE			RTOE			*39			*40			*41			*42			*43			*44			*45			*46			
		X1	Y1	Z1	X2	Y2	Z2	X3	Y3	Z3	X4	Y4	Z4	X5	Y5	Z5	X6	Y6	Z6	X7	Y7	Z7	X8	Y8	Z8	X9	Y9	Z9	X10	Y10	Z10	X11	Y11	Z11	X12	Y12	Z12	X13	Y13	Z13	X14	Y14	Z14	X15	Y15	Z15	X16	Y16	Z16	X17	Y17	Z17	X18	Y18	Z18	X19	Y19	Z19	X20	Y20	Z20	X21	Y21	Z21	X22	Y22	Z22	X23	Y23	Z23	X24	Y24	Z24	X25	Y25	Z25	X26	Y26	Z26	X27	Y27	Z27	X28	Y28	Z28	X29	Y29	Z29	X30	Y30	Z30	X31	Y31	Z31	X32	Y32	Z32	X33	Y33	Z33	X34	Y34	Z34	X35	Y35	Z35	X36	Y36	Z36	X37	Y37	Z37	X38	Y38	Z38	X39	Y39	Z39	X40	Y40	Z40	X41	Y41	Z41	X42	Y42	Z42	X43	Y43	Z43	X44	Y44	Z44	X45	Y45	Z45	X46	Y46	Z46	X47	Y47	Z47	

127	1.260	-915.17188	-460.48019	1630.01453	-1047.79285	-454.37726	1636.37024	-916.34454	-338.18387	1572.99426	-1046.64429	-337.05432	1579.08984	-980.67175	-320.05780	1415.52576	-979.26709	-300.58237	1103.28967	-976.66827	-446.61777	1347.06958	-970.09106	-499.18454	1184.53003	-1078.17981	-280.12259	1239.64929	-822.30322	-390.71021	1383.16101	-750.69012	-383.94272	1186.21216	-741.05920	-402.24481	1064.18457	-749.16016	-463.62372	951.04620	-788.67834	-523.44556	852.26068	-741.18573	-496.33951	841.46307	-755.09833	-544.44513	774.49426	-1137.81702	-404.94275	1367.36157	-1211.62036	-429.39987	1146.14270	-1224.16125	-456.24948	1036.31104	-1229.43970	-481.28091	901.48358	-1194.46460	-511.29221	805.75092	-1243.05286	-486.70450	801.82446	-1233.66223	-511.16577	730.68073	-864.59503	-468.05984	943.26416	-1100.02234	-467.77338	946.63251	-911.97137	-306.29669	958.98462	-1060.48120	-307.95197	975.19940	-812.76251	-492.58887	647.32080	-840.73065	-558.84454	481.70627	-840.32379	-478.19223	297.65854	-879.76306	-413.06345	99.36029	-918.43201	-364.27771	73.27301	-900.37598	-547.00183	36.94984	-1134.87488	-400.02209	648.52472	-1093.54114	-396.93167	470.74582	-1091.03662	-333.09076	287.93384	-1034.58032	-287.85120	77.11301	-982.51227	-242.46669	50.63613	-1019.47491	-427.95050	31.31488	-963.16217	-370.57498	1680.83813																					 
128	1.270	-914.88507	-472.01816	1629.25195	-1047.49121	-465.93866	1635.87817	-916.00623	-349.88351	1572.06274	-1046.44128	-348.57516	1578.56140	-980.51727	-331.66513	1414.83301	-978.55194	-312.35287	1102.55164	-976.90582	-458.17340	1346.40967	-970.68085	-510.80942	1183.87671	-1078.16992	-291.48462	1239.05322	-822.30908	-402.63443	1382.29333	-751.10004	-394.79962	1185.16394	-741.52527	-411.61127	1062.65234	-748.76862	-469.05988	947.07825	-787.28485	-524.98285	845.63379	-739.77075	-497.33273	836.28827	-753.02148	-542.89063	767.46857	-1137.75745	-416.09836	1366.76074	-1212.47021	-444.64401	1146.64355	-1225.66846	-474.45419	1037.68506	-1231.14795	-503.79758	903.65112	-1196.38953	-537.00110	809.07300	-1244.85962	-512.35638	804.32947	-1235.57007	-539.30499	734.10461	-865.15424	-481.05502	942.87677	-1100.54358	-478.14471	945.86316	-910.74097	-318.74133	958.38025	-1059.31738	-318.81021	974.70758	-813.23975	-507.76703	647.63416	-842.64172	-573.91693	482.19803	-841.97382	-503.58472	293.67343	-881.24292	-453.02600	91.05072	-920.46735	-407.10269	61.11081	-902.66266	-590.88336	37.64658	-1134.72192	-405.98465	648.40448	-1093.75720	-400.52591	470.40759	-1091.01672	-334.89511	288.51358	-1034.53394	-288.05853	77.84440	-982.21008	-242.70363	51.67683	-1019.71228	-428.07773	31.28486	-962.31329	-382.24677	1680.58630																					 
129	1.280	-914.61530	-483.53787	1628.26025	-1047.11023	-477.48834	1635.09521	-915.96143	-361.36597	1571.15503	-1046.29199	-360.12436	1577.79602	-980.45111	-343.25156	1413.94617	-977.86743	-324.14886	1101.61548	-977.14478	-469.76218	1345.49719	-971.33307	-522.52332	1182.97522	-1078.03748	-302.77341	1238.10327	-822.23785	-414.79898	1381.19751	-751.59497	-405.73376	1183.77197	-741.97626	-420.98581	1060.92041	-748.38123	-474.54526	943.03809	-785.89703	-526.21619	839.02924	-738.50000	-497.85818	831.12085	-750.98157	-540.99829	760.48651	-1137.74524	-427.21448	1365.97412	-1213.33484	-459.74368	1146.95203	-1227.15015	-492.41345	1038.96167	-1232.79358	-526.14209	905.95435	-1198.27795	-562.64752	812.57104	-1246.47131	-537.92255	806.96649	-1237.28967	-567.29633	737.75830	-865.67889	-494.25549	942.15387	-1101.03491	-488.38269	944.79169	-909.50256	-331.28595	957.56262	-1057.98853	-329.65378	973.89893	-813.71283	-522.54791	647.53809	-844.65997	-587.75439	481.95367	-843.63275	-528.66968	290.08923	-882.64246	-492.92874	84.17010	-922.76416	-449.70914	51.20411	-905.10315	-633.86816	38.61219	-1134.58472	-412.38333	648.02368	-1094.01648	-404.99673	469.90689	-1090.95752	-337.21527	288.89124	-1034.39197	-288.34781	78.49490	-981.96198	-242.93863	52.65547	-1020.06860	-428.15265	31.30933	-962.11725	-393.68396	1679.71167																					 
130	1.290	-914.29089	-495.06558	1627.06787	-1046.85999	-488.96960	1634.18445	-915.62671	-372.90070	1569.72009	-1045.95007	-371.64972	1576.69629	-980.07599	-354.99921	1412.64746	-976.94983	-335.95023	1100.38940	-977.37952	-481.45261	1344.33179	-972.05597	-534.27814	1181.85107	-1077.68738	-314.00296	1236.88574	-822.23846	-426.99130	1379.87207	-751.93951	-417.07397	1182.12817	-742.09283	-430.74500	1058.92627	-747.89459	-480.04468	938.95538	-784.39838	-527.35004	832.49792	-736.89978	-498.92068	826.20721	-748.88776	-538.82050	753.66498	-1137.75916	-438.12469	1364.93640	-1214.16565	-474.59000	1147.11536	-1228.60010	-510.12711	1040.09485	-1234.43835	-548.19232	908.38733	-1200.00684	-588.14673	816.28308	-1247.93506	-563.29260	809.75446	-1238.81665	-595.07660	741.65460	-866.16711	-507.80792	941.20123	-1101.62439	-498.61411	943.49237	-908.03162	-343.96472	956.44153	-1056.52686	-340.45261	972.76172	-814.21301	-536.81458	646.92999	-846.59454	-601.10663	481.42856	-845.21191	-553.44946	286.77603	-884.29877	-533.72888	78.28847	-923.98645	-491.71011	43.23967	-907.40857	-676.45239	40.28435	-1134.42859	-419.22397	647.40686	-1094.02637	-409.97290	469.20645	-1090.76135	-339.99731	289.03925	-1034.22754	-288.65857	79.23668	-981.65369	-243.17120	53.65478	-1019.98981	-428.28064	31.02804	-961.13776	-405.27924	1678.39282																					 
